<?xml version="1.0" encoding="UTF-8"?>
<svg xmlns="http://www.w3.org/2000/svg" xmlns:xlink="http://www.w3.org/1999/xlink" width="20px" height="20px" viewBox="0 0 20 20" version="1.1">
<g id="surface1">
<path style=" stroke:none;fill-rule:nonzero;fill:#DD1111;fill-opacity:1;" d="M 18.515625 6.789062 C 18.351562 6.84375 18.265625 7.019531 18.316406 7.183594 C 18.613281 8.089844 18.761719 9.039062 18.761719 10 C 18.761719 12.421875 17.820312 14.699219 16.105469 16.414062 C 14.394531 18.125 12.117188 19.070312 9.695312 19.070312 C 7.273438 19.070312 4.996094 18.125 3.28125 16.414062 C 1.566406 14.699219 0.625 12.421875 0.625 10 C 0.625 7.578125 1.566406 5.300781 3.28125 3.585938 C 4.996094 1.875 7.273438 0.929688 9.695312 0.929688 C 10.980469 0.929688 12.21875 1.195312 13.382812 1.710938 C 14.507812 2.214844 15.503906 2.929688 16.34375 3.835938 C 16.460938 3.960938 16.660156 3.96875 16.785156 3.851562 C 16.914062 3.734375 16.921875 3.535156 16.804688 3.410156 C 15.90625 2.441406 14.839844 1.679688 13.636719 1.140625 C 12.394531 0.585938 11.066406 0.304688 9.695312 0.304688 C 7.105469 0.304688 4.671875 1.3125 2.839844 3.144531 C 1.007812 4.976562 0 7.410156 0 10 C 0 12.589844 1.007812 15.023438 2.839844 16.855469 C 4.671875 18.6875 7.105469 19.695312 9.695312 19.695312 C 12.285156 19.695312 14.71875 18.6875 16.546875 16.855469 C 18.378906 15.023438 19.386719 12.589844 19.386719 10 C 19.386719 8.972656 19.226562 7.957031 18.910156 6.988281 C 18.859375 6.824219 18.679688 6.734375 18.515625 6.789062 Z M 18.515625 6.789062 "/>
<path style=" stroke:none;fill-rule:nonzero;fill:#DD1111;fill-opacity:1;" d="M 19.726562 3.253906 C 19.546875 3.074219 19.3125 2.976562 19.0625 2.976562 C 18.8125 2.976562 18.574219 3.074219 18.398438 3.253906 L 18.117188 3.53125 C 17.996094 3.652344 17.996094 3.851562 18.117188 3.972656 C 18.242188 4.097656 18.4375 4.097656 18.5625 3.972656 L 18.839844 3.695312 C 18.898438 3.636719 18.976562 3.601562 19.0625 3.601562 C 19.144531 3.601562 19.222656 3.636719 19.285156 3.695312 C 19.34375 3.753906 19.375 3.832031 19.375 3.914062 C 19.375 4 19.34375 4.078125 19.285156 4.136719 L 8.507812 14.914062 C 8.449219 14.972656 8.371094 15.003906 8.285156 15.003906 C 8.203125 15.003906 8.125 14.972656 8.066406 14.910156 L 3.855469 10.703125 C 3.796875 10.644531 3.765625 10.566406 3.765625 10.484375 C 3.765625 10.398438 3.796875 10.320312 3.859375 10.261719 C 3.917969 10.203125 3.996094 10.167969 4.078125 10.167969 C 4.164062 10.167969 4.242188 10.203125 4.300781 10.261719 L 8.066406 14.027344 C 8.125 14.085938 8.203125 14.117188 8.285156 14.117188 C 8.371094 14.117188 8.449219 14.085938 8.507812 14.027344 L 17.679688 4.855469 C 17.804688 4.730469 17.804688 4.535156 17.679688 4.410156 C 17.558594 4.289062 17.363281 4.289062 17.238281 4.410156 L 8.285156 13.363281 L 4.742188 9.820312 C 4.566406 9.640625 4.328125 9.542969 4.078125 9.542969 C 3.828125 9.542969 3.59375 9.640625 3.414062 9.820312 C 3.238281 9.996094 3.140625 10.230469 3.140625 10.484375 C 3.140625 10.734375 3.238281 10.96875 3.414062 11.144531 L 7.625 15.355469 C 7.800781 15.53125 8.035156 15.628906 8.285156 15.628906 C 8.539062 15.628906 8.773438 15.53125 8.949219 15.355469 L 19.726562 4.578125 C 19.902344 4.402344 20 4.164062 20 3.914062 C 20 3.664062 19.902344 3.429688 19.726562 3.253906 Z M 19.726562 3.253906 "/>
</g>
</svg>
