<?xml version="1.0" standalone="no"?>
<!DOCTYPE svg PUBLIC "-//W3C//DTD SVG 20010904//EN"
 "http://www.w3.org/TR/2001/REC-SVG-20010904/DTD/svg10.dtd">
<svg version="1.0" xmlns="http://www.w3.org/2000/svg"
 width="300.000000pt" height="300.000000pt" viewBox="0 0 300.000000 300.000000"
 preserveAspectRatio="xMidYMid meet">

<g transform="translate(0.000000,300.000000) scale(0.100000,-0.100000)"
fill="#DD1111" stroke="none">
<path d="M2049 2407 c-19 -13 -65 -46 -102 -73 -38 -27 -81 -58 -97 -69 -15
-11 -50 -36 -76 -55 -139 -98 -279 -203 -282 -209 -3 -10 120 -71 164 -81 35
-8 41 -6 76 25 45 42 80 57 178 79 232 51 354 250 236 384 -25 28 -54 28 -97
-1z m26 -137 c27 -29 10 -74 -28 -78 -36 -4 -57 13 -57 47 0 51 50 69 85 31z"/>
<path d="M1329 1891 c-46 -33 -104 -74 -129 -91 -25 -17 -108 -76 -185 -131
-77 -54 -164 -116 -193 -136 -29 -21 -75 -54 -102 -73 -27 -19 -72 -51 -100
-70 -29 -19 -65 -45 -81 -58 l-29 -23 21 -22 c11 -12 25 -31 31 -41 9 -17 8
-18 -13 -12 -43 13 -98 19 -114 12 -14 -5 -10 -16 21 -73 146 -264 313 -469
475 -584 22 -15 17 -16 -92 -33 -138 -21 -438 -84 -459 -97 -10 -6 -2 -7 25
-4 22 3 117 12 210 20 362 31 567 38 974 32 362 -5 494 -12 796 -43 39 -4 67
-4 64 0 -9 10 -279 65 -449 91 -183 29 -387 45 -560 45 l-125 0 53 25 c168 78
430 304 552 474 60 85 140 223 140 243 0 5 -37 32 -83 63 -114 75 -227 173
-265 231 -51 76 -60 133 -36 220 5 18 -1 22 -48 33 -30 6 -75 23 -101 36 -73
39 -102 34 -198 -34z m585 -713 c-27 -40 -103 -127 -169 -193 -153 -154 -273
-234 -464 -311 -119 -48 -161 -44 -161 17 0 34 9 41 110 84 276 117 515 270
669 429 30 30 57 54 59 51 3 -2 -17 -37 -44 -77z"/>
</g>
</svg>
