<?xml version="1.0" standalone="no"?>
<!DOCTYPE svg PUBLIC "-//W3C//DTD SVG 20010904//EN"
 "http://www.w3.org/TR/2001/REC-SVG-20010904/DTD/svg10.dtd">
<svg version="1.0" xmlns="http://www.w3.org/2000/svg"
 width="600.000000pt" height="600.000000pt" viewBox="0 0 600.000000 600.000000"
 preserveAspectRatio="xMidYMid meet">

<g transform="translate(0.000000,600.000000) scale(0.100000,-0.100000)"
fill="#DD1111" stroke="none">
<path d="M4867 5486 c-46 -11 -140 -72 -376 -246 -99 -73 -223 -162 -511 -370
-107 -77 -238 -171 -290 -210 -52 -38 -160 -116 -240 -174 -80 -57 -161 -118
-180 -134 l-35 -30 60 -28 c33 -15 87 -44 120 -65 83 -52 202 -98 303 -117
l86 -15 25 34 c34 44 100 105 131 121 14 7 36 20 50 29 39 25 159 64 340 109
260 64 390 124 535 245 90 75 131 123 170 200 74 147 86 293 36 441 -25 75
-37 95 -88 146 -32 33 -65 63 -73 67 -8 4 -36 3 -63 -3z m-69 -406 c40 -30 56
-69 49 -127 -4 -39 -12 -54 -46 -85 -33 -31 -48 -38 -82 -38 -51 0 -116 35
-135 72 -19 37 -18 104 3 139 40 67 147 87 211 39z"/>
<path d="M3070 4194 c-47 -16 -117 -57 -215 -126 -60 -44 -134 -96 -163 -116
-49 -35 -162 -115 -397 -282 -55 -40 -154 -110 -220 -156 -66 -47 -154 -110
-195 -139 -108 -79 -382 -273 -450 -320 -52 -36 -198 -139 -329 -233 -25 -18
-68 -49 -96 -67 -27 -19 -90 -64 -140 -99 -49 -36 -114 -82 -144 -103 -106
-75 -103 -60 -28 -139 37 -38 72 -82 79 -99 6 -16 16 -33 22 -37 6 -4 7 -10 3
-14 -4 -4 -51 8 -104 27 -82 28 -112 34 -185 34 -68 0 -91 -4 -104 -17 -15
-15 -14 -20 14 -70 16 -29 44 -80 62 -113 89 -163 172 -302 250 -420 142 -213
152 -227 210 -305 31 -41 75 -100 98 -130 22 -30 49 -64 59 -75 10 -11 43 -49
73 -85 150 -177 407 -428 512 -498 69 -47 156 -86 263 -119 82 -25 103 -27
240 -26 125 2 173 7 285 31 129 28 263 71 360 114 77 34 263 128 300 151 99
60 393 259 430 290 14 12 55 47 90 77 118 100 418 391 519 504 100 112 186
222 276 351 27 39 63 91 82 117 51 73 177 309 213 399 33 82 33 104 3 117 -10
4 -85 51 -168 106 -439 289 -694 522 -798 732 -53 105 -67 164 -67 278 0 76 6
122 25 186 13 46 21 88 19 92 -3 4 -23 8 -44 8 -59 0 -183 26 -237 50 -26 12
-64 29 -83 38 -19 8 -46 23 -60 33 -62 42 -203 71 -260 53z m1450 -1841 c0 -5
-13 -27 -28 -49 -15 -23 -36 -54 -46 -70 -11 -16 -44 -67 -74 -112 -30 -46
-69 -101 -86 -122 -17 -21 -60 -76 -96 -121 -59 -75 -185 -213 -285 -314 -125
-125 -325 -289 -480 -395 -206 -139 -543 -316 -745 -391 -41 -15 -106 -39
-145 -54 -136 -52 -201 -50 -251 9 -25 28 -40 101 -30 142 12 48 62 80 248
159 254 109 463 208 678 323 113 60 425 244 450 266 8 7 56 41 105 75 245 167
423 317 634 533 110 113 151 146 151 121z"/>
</g>
</svg>
