<?xml version="1.0" standalone="no"?>
<!DOCTYPE svg PUBLIC "-//W3C//DTD SVG 20010904//EN"
 "http://www.w3.org/TR/2001/REC-SVG-20010904/DTD/svg10.dtd">
<svg version="1.0" xmlns="http://www.w3.org/2000/svg"
 width="509.000000pt" height="490.000000pt" viewBox="0 0 509.000000 490.000000"
 preserveAspectRatio="xMidYMid meet">

<g transform="translate(0.000000,490.000000) scale(0.100000,-0.100000)"
fill="#DD1111" stroke="none">
<path d="M3776 4775 c-31 -19 -74 -47 -94 -63 -20 -16 -183 -135 -362 -264
-179 -129 -380 -275 -446 -324 -67 -49 -130 -94 -140 -101 -18 -12 -18 -13 1
-28 54 -45 222 -116 306 -130 33 -6 41 -2 90 41 64 57 143 95 269 129 202 55
282 85 354 132 90 61 176 147 205 205 46 96 50 231 10 315 -24 50 -94 123
-118 123 -10 0 -43 -16 -75 -35z m-11 -229 c40 -17 55 -42 55 -93 0 -69 -55
-112 -124 -99 -95 18 -103 152 -12 192 39 17 40 17 81 0z"/>
<path d="M2545 3882 c-66 -31 -175 -105 -518 -352 -180 -129 -391 -280 -469
-335 -167 -117 -623 -444 -658 -473 l-24 -19 36 -34 c19 -19 43 -49 52 -67 22
-42 9 -48 -69 -27 -80 20 -154 20 -162 -1 -15 -40 207 -415 394 -664 158 -210
425 -475 531 -527 29 -14 55 -29 58 -34 10 -16 -42 -37 -111 -43 -168 -16
-794 -128 -825 -147 -19 -13 175 -6 550 20 586 41 730 46 1375 46 650 0 759
-4 1240 -46 288 -24 431 -33 425 -26 -6 6 -399 88 -562 116 -133 23 -287 42
-573 71 -335 33 -413 39 -604 50 -102 6 -187 13 -189 15 -11 11 26 37 126 89
114 60 293 184 429 298 100 84 327 313 418 423 113 136 295 428 326 523 14 43
7 51 -130 144 -268 182 -453 345 -516 452 -69 118 -89 236 -66 379 5 28 4 50
-1 54 -6 3 -43 14 -82 23 -40 10 -115 37 -167 59 -118 50 -179 59 -234 33z
m1025 -1295 c0 -31 -162 -255 -288 -397 -111 -126 -183 -192 -322 -299 -187
-143 -294 -210 -485 -302 -336 -162 -425 -178 -470 -82 -39 82 5 130 192 208
489 207 905 470 1256 794 98 90 117 103 117 78z"/>
<path d="M823 838 c-4 -7 -9 -136 -11 -285 l-3 -273 45 0 46 0 0 279 0 279
-22 6 c-34 9 -46 7 -55 -6z"/>
<path d="M338 792 l-48 -3 0 -245 0 -244 26 -10 c14 -6 102 -10 195 -10 l169
0 0 39 c0 28 -5 41 -17 46 -10 4 -76 9 -146 12 -125 6 -128 7 -123 27 3 12 6
36 6 54 l0 32 123 0 122 0 -3 45 -4 45 -57 0 c-31 0 -86 3 -123 7 l-68 6 0 53
0 54 121 0 c66 0 129 5 140 10 14 8 19 21 19 51 l0 40 -142 -3 c-79 -2 -164
-4 -190 -6z"/>
<path d="M1220 799 c0 -2 -1 -120 -3 -263 l-2 -258 135 5 c196 7 272 37 286
114 9 49 -3 82 -42 119 l-35 32 32 45 c57 81 35 148 -58 179 -45 15 -313 38
-313 27z m282 -116 c30 -30 17 -78 -24 -92 -35 -12 -90 -14 -137 -5 -25 5 -31
11 -31 33 0 39 22 74 50 83 44 13 120 3 142 -19z m10 -210 c26 -23 23 -59 -7
-79 -33 -22 -133 -29 -165 -12 -26 14 -36 44 -26 84 6 23 10 24 93 24 66 0 91
-4 105 -17z"/>
<path d="M4200 727 c0 -34 -6 -48 -25 -65 -30 -27 -34 -62 -6 -62 30 0 34 -14
41 -138 6 -113 6 -115 38 -143 25 -23 42 -29 76 -29 90 0 115 63 33 84 l-37
10 0 108 0 108 46 0 c44 0 45 1 42 28 -3 25 -7 27 -50 30 l-48 3 0 55 0 54
-55 0 -55 0 0 -43z"/>
<path d="M1817 668 c-49 -17 -58 -23 -55 -41 3 -20 10 -22 89 -27 93 -6 122
-19 117 -54 -3 -19 -12 -22 -83 -27 -83 -6 -138 -26 -149 -54 -3 -9 -6 -37 -6
-62 0 -38 5 -50 34 -79 39 -39 74 -44 150 -18 46 16 48 16 70 -5 26 -24 68
-28 86 -6 8 10 11 54 8 153 -4 162 -11 181 -91 218 -61 28 -92 28 -170 2z
m143 -211 c35 -18 36 -43 2 -76 -38 -38 -95 -50 -122 -26 -23 21 -27 84 -8
103 16 16 96 15 128 -1z"/>
<path d="M2210 485 l0 -205 50 0 50 0 0 103 c0 108 11 167 36 192 17 16 90 20
112 6 21 -13 31 -76 32 -183 0 -88 2 -98 21 -108 11 -6 34 -8 51 -5 l31 7 -6
147 c-6 179 -14 203 -74 232 l-45 22 -62 -22 c-76 -26 -96 -27 -103 -1 -4 16
-14 20 -49 20 l-44 0 0 -205z"/>
<path d="M2795 671 c-51 -23 -92 -71 -101 -117 -12 -63 1 -159 26 -194 25 -35
90 -69 131 -70 15 0 48 9 74 21 61 27 65 21 65 -92 l0 -86 31 -7 c75 -15 69
-39 69 279 l0 285 -44 0 c-36 0 -46 -4 -51 -20 -4 -11 -15 -20 -26 -20 -11 0
-37 9 -59 20 -48 24 -64 25 -115 1z m161 -102 c20 -19 24 -32 24 -79 0 -79
-24 -110 -85 -110 -24 0 -51 3 -60 6 -25 10 -45 58 -45 109 0 39 5 52 30 77
27 27 36 30 71 25 23 -3 52 -16 65 -28z"/>
<path d="M3220 539 c0 -137 2 -155 21 -186 23 -37 65 -63 103 -63 14 0 47 9
74 19 50 20 64 18 75 -11 5 -14 18 -18 52 -18 l45 0 0 206 0 205 -45 -3 -45
-3 -5 -117 c-6 -164 -25 -195 -116 -186 -29 2 -36 8 -46 38 -7 19 -12 78 -13
130 -1 134 -3 140 -56 140 l-44 0 0 -151z"/>
<path d="M4590 658 c-69 -43 -95 -90 -94 -173 0 -33 8 -73 16 -90 50 -95 171
-132 268 -83 35 18 45 28 45 48 0 25 0 25 -81 22 -87 -4 -116 5 -134 39 -9 15
-8 24 2 36 11 13 31 15 141 9 l129 -7 -7 33 c-17 82 -27 106 -57 135 -35 34
-103 63 -147 63 -15 0 -51 -15 -81 -32z m173 -87 c22 -22 22 -22 3 -37 -13 -9
-44 -14 -83 -14 -35 0 -66 0 -70 -1 -16 -1 -14 33 2 58 16 23 22 25 72 21 39
-3 60 -11 76 -27z"/>
<path d="M3796 654 c-79 -54 -110 -186 -62 -269 32 -53 106 -95 169 -95 80 0
165 52 138 84 -10 12 -30 14 -94 9 l-82 -5 -34 36 c-25 26 -31 37 -20 41 8 2
73 6 144 7 l130 3 -1 48 c0 35 -8 57 -30 90 -38 54 -83 76 -159 77 -49 0 -68
-5 -99 -26z m177 -83 c22 -22 22 -22 3 -37 -27 -19 -139 -19 -155 0 -14 16 -1
50 21 60 29 13 110 -1 131 -23z"/>
</g>
</svg>
